<?xml version="1.0" encoding="UTF-8"?>
<!DOCTYPE svg PUBLIC "-//W3C//DTD SVG 1.1//EN" "http://www.w3.org/Graphics/SVG/1.1/DTD/svg11.dtd">
<!-- Creator: CorelDRAW 2020 (64-Bit) -->
<svg xmlns="http://www.w3.org/2000/svg" xml:space="preserve" width="1954px" height="2036px" version="1.1" style="shape-rendering:geometricPrecision; text-rendering:geometricPrecision; image-rendering:optimizeQuality; fill-rule:evenodd; clip-rule:evenodd"
viewBox="0 0 1954 2036.7"
 xmlns:xlink="http://www.w3.org/1999/xlink"
 xmlns:xodm="http://www.corel.com/coreldraw/odm/2003">
 <defs>
  <style type="text/css">
   <![CDATA[
    .fil1 {fill:black}
    .fil0 {fill:#EA504D}
   ]]>
  </style>
 </defs>
 <g id="Plan_x0020_1">
  <metadata id="CorelCorpID_0Corel-Layer"/>
  <g id="_2592757319984">
   <path class="fil0" d="M34.45 953.3c22.63,288.64 224.22,131.44 272.66,107.6 0.97,79 -35.46,230.22 -43.59,328.57 -10.11,122.18 -2.31,257.63 33.05,361.14 74.29,217.47 249.15,285.3 416.62,189.23 191.94,-110.1 325,-424.8 420.76,-652.24 35.44,-84.15 67.59,-181.61 104.89,-259.99 34.91,196.02 -14.96,630.53 306.05,631.78 123.7,0.49 226.12,-74.5 281.31,-151.25 49.18,-68.39 140.09,-277.56 44.9,-357.86 -46.05,10.69 -76.99,64.77 -111.05,97.48 -30.37,29.15 -78.12,87.37 -126.51,87.76 -189.14,1.51 20.17,-869.45 -202.56,-982.16 -65,-32.89 -127.38,-0.26 -151.4,48.36 -46.87,94.87 -91.66,226.66 -133.24,323.26 -118.42,275.17 -203.76,520.1 -366.31,776.08 -35.13,55.31 -55.67,104.76 -126.24,98.98 -186.47,-293.25 274.52,-1268.41 78.62,-1496.16 -172.18,-200.18 -277.35,242.63 -347.59,379.86 -51.73,101.06 -102.84,181.64 -155.92,261.08 -46.54,69.67 -126.15,156.27 -194.45,208.48z"/>
   <path class="fil1" d="M34.45 953.3c68.3,-52.21 147.91,-138.81 194.45,-208.48 53.08,-79.44 104.19,-160.02 155.92,-261.08 70.24,-137.23 175.41,-580.04 347.59,-379.86 195.9,227.75 -265.09,1202.91 -78.62,1496.16 70.57,5.78 91.11,-43.67 126.24,-98.98 162.55,-255.98 247.89,-500.91 366.31,-776.08 41.58,-96.6 86.37,-228.39 133.24,-323.26 24.02,-48.62 86.4,-81.25 151.4,-48.36 222.73,112.71 13.42,983.67 202.56,982.16 48.39,-0.39 96.14,-58.61 126.51,-87.76 34.06,-32.71 65,-86.79 111.05,-97.48 95.19,80.3 4.28,289.47 -44.9,357.86 -55.19,76.75 -157.61,151.74 -281.31,151.25 -321.01,-1.25 -271.14,-435.76 -306.05,-631.78 -37.3,78.38 -69.45,175.84 -104.89,259.99 -95.76,227.44 -228.82,542.14 -420.76,652.24 -167.47,96.07 -342.33,28.24 -416.62,-189.23 -35.36,-103.51 -43.16,-238.96 -33.05,-361.14 8.13,-98.35 44.56,-249.57 43.59,-328.57 -48.44,23.84 -250.03,181.04 -272.66,-107.6zm641.27 609.53c-153.67,-134.4 190.81,-1071.2 131.42,-1374.4 -25.78,-131.6 -141.61,-234.57 -251.27,-135.95 -87.54,78.73 -136.06,311.62 -247.9,501.87 -35.95,61.16 -59.62,94.83 -96.1,146.24 -53.49,75.4 -105.12,137.74 -171.6,197.33 -95.98,86.03 16.84,232.88 51.32,252.5 60.57,34.48 116.42,5.34 172.51,-13.82 -7.68,115.52 -36.36,210.24 -37.24,342.31 -2.26,342.56 157.53,633.08 453.55,520.38 259.52,-98.8 425.08,-559.2 538.96,-824.97 29.78,214.04 25.81,367.27 151.67,466.51 253.99,200.26 652.76,-136.99 560.6,-456.34 -65.66,-227.54 -198.35,122.19 -315.65,106.56 -71.19,-103.71 -22.05,-615.19 -61.92,-790.8 -26.1,-114.94 -73.51,-208.57 -186.61,-200.61 -103.15,7.26 -132.76,116.57 -171.17,208.66 -77.81,186.54 -384.16,988.17 -520.57,1054.53z"/>
  </g>
 </g>
</svg>
